<?xml version="1.0" standalone="no"?>
<!DOCTYPE svg PUBLIC "-//W3C//DTD SVG 20010904//EN"
 "http://www.w3.org/TR/2001/REC-SVG-20010904/DTD/svg10.dtd">
<svg version="1.0" xmlns="http://www.w3.org/2000/svg"
 width="1325.000000pt" height="1325.000000pt" viewBox="0 0 1325.000000 1325.000000"
 preserveAspectRatio="xMidYMid meet">

<g transform="translate(0.000000,1325.000000) scale(0.100000,-0.100000)"
fill="#00A03F" stroke="none">
<path d="M0 6625 l0 -6625 6625 0 6625 0 0 6625 0 6625 -6625 0 -6625 0 0
-6625z m7150 5576 c74 -11 180 -29 235 -41 180 -37 449 -115 441 -128 -2 -4
-49 -9 -103 -10 -309 -7 -571 -51 -748 -124 -1011 -417 -1689 -1108 -1936
-1971 -34 -120 -81 -343 -77 -364 2 -11 18 -3 58 30 85 70 314 225 353 240 10
4 16 11 13 16 -3 5 1 12 10 15 9 3 12 2 8 -5 -3 -6 3 -5 14 2 12 7 18 17 15
23 -3 5 -1 6 4 3 13 -8 264 119 255 129 -4 4 -1 4 6 -1 17 -9 64 14 55 28 -3
6 -1 7 6 3 6 -4 46 6 87 23 42 17 84 31 93 31 14 0 14 2 1 11 -12 8 -11 9 6 4
26 -7 94 19 73 29 -8 3 -4 3 8 0 13 -3 28 -2 35 3 13 8 18 9 51 11 10 1 15 6
12 12 -3 5 2 9 12 8 10 0 29 0 43 1 21 1 22 3 10 12 -12 9 -10 10 9 5 13 -2
78 8 145 24 66 15 159 34 206 40 47 7 119 19 160 26 41 8 91 15 110 18 19 2
76 9 125 16 119 16 494 17 620 1 573 -72 1062 -276 1499 -625 120 -96 341
-309 436 -421 417 -493 674 -1082 765 -1755 22 -162 31 -545 16 -722 -58 -690
-298 -1298 -730 -1848 -102 -131 -362 -388 -500 -494 -553 -428 -1179 -640
-1836 -623 -497 13 -917 156 -1300 443 -118 89 -297 260 -346 331 -17 23 -33
43 -37 43 -4 0 -20 23 -35 50 -29 51 -41 64 -31 33 5 -16 4 -16 -6 0 -7 10 -9
21 -6 24 3 3 -3 18 -13 32 -33 48 -107 175 -125 218 -11 23 -23 40 -28 37 -5
-3 -8 -2 -7 3 5 27 -2 53 -13 47 -7 -4 -8 -3 -4 4 4 7 4 18 -1 25 -4 6 -13 28
-19 47 l-11 35 -11 -25 c-6 -14 -11 -18 -11 -9 -1 8 4 20 10 26 7 7 5 30 -10
78 -28 90 -52 190 -58 245 -3 25 -8 47 -11 50 -20 15 -20 464 -1 614 7 55 13
122 14 149 0 26 3 47 6 47 4 0 9 8 12 18 2 9 8 26 13 36 5 15 4 17 -6 11 -9
-6 -11 -4 -5 5 4 7 2 16 -6 21 -7 4 -10 11 -6 16 5 4 12 1 17 -7 5 -8 12 -11
16 -7 4 3 1 13 -5 21 -7 9 -8 17 -2 20 5 3 12 1 14 -4 3 -6 4 -5 3 2 -1 7 -11
13 -22 14 -49 3 -79 24 -54 39 6 3 10 15 10 26 0 14 7 19 30 19 26 0 30 -4 30
-27 0 -16 5 -35 11 -43 9 -12 10 -12 5 3 -3 10 -6 30 -6 43 0 17 -8 27 -25 34
-14 5 -25 14 -25 19 0 12 29 23 41 15 5 -3 9 3 10 13 0 16 1 16 8 -1 6 -15 10
-16 16 -7 4 8 2 17 -6 22 -18 11 -29 11 -29 0 0 -7 -48 -22 -66 -20 -4 0 -11
-5 -15 -13 -5 -8 -9 -9 -9 -2 0 6 7 17 15 24 8 7 15 9 15 5 0 -4 7 -2 16 6 14
12 14 14 -2 26 -10 7 -26 13 -36 13 -24 0 -23 8 5 31 l22 18 -27 1 c-18 0 -28
5 -28 15 0 9 -9 15 -25 15 -14 0 -25 5 -25 10 0 6 11 10 25 10 16 0 25 6 25
15 0 8 9 15 20 15 17 0 20 7 20 40 0 22 -4 40 -10 40 -5 0 -10 -7 -10 -15 0
-8 -4 -15 -9 -15 -5 0 -11 7 -15 15 -3 8 -1 15 4 15 6 0 10 18 10 40 0 33 -3
40 -20 40 -17 0 -20 7 -20 40 0 22 5 40 10 40 11 0 13 39 4 64 -3 9 -12 16
-20 16 -16 0 -19 26 -4 35 6 3 10 21 10 40 0 38 -25 55 -33 23 -6 -23 -22 -17
-38 15 l-10 22 18 -21 19 -21 12 25 c14 31 7 44 -21 37 -12 -2 -16 -2 -9 1 6
3 10 10 6 15 -3 5 -16 -6 -30 -26 -37 -55 -55 -95 -49 -106 4 -5 1 -8 -5 -7
-7 2 -21 -10 -30 -27 -25 -42 -89 -164 -91 -173 -1 -4 -12 -31 -26 -60 -72
-157 -141 -424 -169 -652 -24 -199 -15 -520 20 -685 51 -242 128 -500 233
-785 62 -168 89 -225 202 -428 28 -50 51 -94 51 -97 0 -9 -117 53 -232 123
-60 37 -122 74 -137 82 -14 8 -28 18 -31 21 -3 3 -48 37 -100 74 -52 38 -113
86 -135 107 -39 37 -64 50 -49 26 4 -7 3 -8 -5 -4 -6 4 -9 11 -6 16 3 4 -20
29 -51 55 -58 50 -280 275 -331 335 -79 94 -75 90 -92 77 -14 -11 -14 -10 -3
5 12 15 8 24 -35 75 -28 32 -82 104 -121 161 -61 90 -72 101 -81 85 -6 -10
-10 -13 -11 -8 0 6 4 17 9 24 7 11 1 25 -18 50 -15 20 -40 59 -56 88 -15 29
-32 50 -38 46 -6 -3 -7 -1 -4 4 4 6 -9 37 -27 69 -19 33 -44 78 -55 102 -13
28 -25 41 -32 36 -8 -5 -9 -3 -4 5 8 14 -23 91 -37 91 -4 0 -8 7 -8 15 0 8
-23 62 -50 120 -27 58 -50 108 -50 112 0 4 -8 25 -18 47 -44 98 -52 118 -52
132 0 8 -3 13 -7 11 -5 -3 -8 7 -9 22 0 14 -8 42 -17 61 -9 19 -23 63 -33 98
-11 40 -20 59 -25 51 -4 -7 -3 -21 3 -32 5 -10 7 -21 5 -24 -3 -2 -8 5 -12 16
-3 12 -11 19 -16 16 -5 -4 -9 -1 -9 4 0 6 4 11 9 11 12 0 19 33 14 64 -5 25
-6 25 -20 9 -13 -16 -13 -16 -3 4 8 17 6 38 -7 88 -9 36 -21 65 -26 65 -4 0
-5 4 -2 10 3 5 3 26 -1 46 l-7 37 -12 -29 c-10 -25 -11 -19 -7 41 3 61 2 68
-10 52 -12 -16 -14 -14 -16 25 -5 111 -15 188 -24 188 -6 0 -8 9 -5 21 7 26
-13 149 -24 149 -13 0 -11 -40 5 -85 8 -22 11 -44 8 -50 -4 -5 -10 6 -13 25
-4 25 -6 15 -6 -33 -1 -76 -12 -106 -14 -36 -1 24 -4 35 -6 24 -3 -11 0 -65 8
-119 10 -77 10 -101 1 -104 -14 -4 -16 -32 -3 -32 5 0 11 7 15 15 3 8 10 15
16 15 14 0 2 -72 -14 -82 -11 -7 -11 -7 19 -24 11 -6 26 -22 32 -35 8 -15 13
-18 14 -9 0 10 2 11 6 2 2 -6 8 -10 12 -7 5 2 6 -8 2 -23 l-5 -27 -4 25 c-4
23 -5 24 -13 5 -6 -17 -8 -17 -8 -2 -1 9 -7 17 -15 17 -8 0 -20 2 -28 5 -10 4
-12 -5 -10 -40 2 -25 8 -45 13 -45 5 0 9 -40 9 -88 0 -62 4 -94 15 -108 10
-13 14 -46 15 -111 0 -55 4 -93 10 -93 6 0 10 -18 10 -40 0 -22 5 -40 10 -40
6 0 10 19 10 42 0 23 2 39 5 36 9 -8 -7 -188 -16 -188 -4 0 -14 7 -23 15 -8 8
-19 15 -25 15 -16 0 -13 -18 4 -27 21 -12 22 -68 2 -90 -13 -16 -15 -28 -8
-71 8 -51 6 -56 -14 -52 -5 1 -4 -4 3 -12 11 -11 14 -10 22 2 5 8 10 23 10 33
0 20 16 23 23 5 2 -7 1 -37 -3 -65 l-6 -53 70 -1 c39 -1 82 -5 96 -9 26 -8 14
-13 -30 -12 -22 1 -21 0 8 -10 42 -14 41 -25 -4 -34 -27 -5 -34 -10 -29 -23 4
-9 9 -34 12 -56 3 -22 11 -46 16 -53 6 -8 10 -27 9 -44 -1 -17 6 -40 18 -55
14 -17 20 -41 20 -73 0 -38 6 -52 31 -81 18 -19 29 -28 25 -21 -4 6 -4 17 0
23 9 15 24 -9 24 -38 0 -15 11 -28 33 -39 17 -10 26 -19 20 -21 -7 -3 -13 -20
-13 -38 0 -18 6 -36 13 -38 7 -4 6 -6 -5 -6 -13 -1 -17 -17 -23 -88 -4 -49
-13 -98 -21 -110 -18 -29 -18 -43 1 -43 11 0 15 -11 15 -40 0 -22 4 -40 9 -40
5 0 11 -18 13 -40 2 -28 0 -40 -9 -40 -8 0 -13 14 -13 40 0 22 -4 40 -10 40
-12 0 -12 -15 -4 -99 8 -68 21 -80 27 -23 2 20 4 2 5 -40 1 -43 6 -78 10 -78
7 0 32 -174 32 -222 0 -12 -8 -18 -22 -18 -22 -1 -22 -1 4 -18 34 -21 35 -25
3 -42 -23 -13 -25 -18 -25 -92 0 -55 -4 -78 -12 -79 -10 0 -10 -2 -1 -6 8 -3
13 -24 13 -53 0 -52 -9 -61 -67 -68 -7 -1 -13 -11 -13 -21 0 -11 -4 -21 -10
-23 -15 -5 -17 -121 -2 -126 7 -2 12 -10 12 -18 0 -15 -29 -19 -106 -15 -36 2
-47 -3 -85 -38 -24 -22 -50 -41 -56 -41 -7 0 -13 -7 -13 -15 0 -18 -49 -64
-67 -65 -7 0 -13 -11 -13 -24 0 -14 -4 -27 -9 -30 -11 -7 -24 41 -16 54 4 6
-4 10 -17 10 -16 0 -19 -3 -10 -8 10 -7 10 -15 2 -36 -15 -40 -13 -46 15 -46
31 0 25 -19 -15 -42 -27 -15 -30 -22 -30 -66 0 -46 -25 -92 -49 -92 -5 0 -9
-30 -10 -66 -1 -65 -2 -68 -41 -101 -34 -29 -40 -40 -40 -74 0 -36 -2 -39 -28
-39 -15 0 -33 -5 -40 -12 -17 -17 -15 -68 3 -68 9 0 12 -6 9 -15 -4 -8 -10
-15 -15 -15 -5 0 -9 7 -9 15 0 27 -16 16 -36 -25 -14 -31 -24 -39 -38 -36 -14
4 -16 2 -8 -6 6 -6 59 -16 117 -21 104 -10 126 -20 83 -36 -16 -6 -28 -4 -39
5 -12 11 -23 12 -43 4 -15 -5 -32 -8 -37 -5 -5 4 -17 1 -26 -4 -15 -8 -10 -11
22 -12 22 0 50 -4 63 -8 l24 -6 -26 -23 c-27 -23 -37 -27 -35 -14 1 4 1 15 0
25 -2 24 -21 21 -21 -4 0 -24 -36 -58 -65 -60 -11 -1 -2 -5 20 -9 32 -6 21 -8
-55 -11 -93 -3 -93 -3 -30 -8 63 -5 62 -6 -40 -11 l-105 -6 160 -4 c88 -2 560
-3 1050 -4 843 -1 893 -2 940 -20 28 -10 62 -27 78 -38 15 -11 27 -16 27 -12
0 17 110 -107 145 -163 71 -118 78 -150 83 -408 4 -253 -4 -315 -55 -422 -39
-83 -152 -194 -239 -235 l-69 -33 -465 0 -465 0 -65 32 c-76 39 -110 68 -178
155 -92 118 -117 236 -109 533 4 190 10 230 42 307 6 15 0 16 -56 11 -35 -3
-69 -12 -77 -19 -20 -20 -24 -17 -11 9 11 20 11 21 -4 8 -14 -11 -17 -11 -17
-1 0 8 -2 11 -5 9 -2 -3 5 -30 18 -60 21 -51 22 -69 22 -319 0 -252 -1 -268
-23 -329 -13 -35 -21 -66 -18 -68 3 -3 26 -5 51 -5 32 1 45 -2 42 -11 -2 -7
-14 -13 -26 -15 -12 -2 -25 -11 -28 -20 -9 -24 -25 -32 -48 -26 -16 4 -17 3
-5 -5 12 -8 12 -11 -3 -17 -29 -11 -32 4 -8 37 13 17 21 33 18 35 -8 9 -52
-60 -49 -77 2 -9 -4 -22 -13 -29 -18 -15 -21 0 -3 18 7 7 8 12 2 12 -9 0 -38
-38 -39 -52 0 -4 -6 -13 -14 -20 -10 -10 -12 -10 -7 0 10 17 -9 15 -23 -2 -9
-11 -9 -15 1 -19 7 -3 4 -5 -7 -4 -11 0 -40 -12 -64 -27 -24 -15 -57 -31 -75
-34 -17 -4 -246 -7 -509 -7 -396 0 -479 2 -486 14 -5 8 -28 14 -53 15 -24 1
-50 6 -58 11 -8 5 -30 8 -51 7 -22 -2 -41 3 -49 13 -9 11 -16 12 -26 4 -12
-10 -65 -9 -229 5 -27 3 -60 5 -72 5 -12 1 -28 8 -37 16 -10 11 -36 15 -89 15
-46 0 -77 4 -79 11 -2 6 -26 13 -53 16 -28 3 -57 12 -66 20 -10 8 -26 12 -41
8 -16 -4 -29 -1 -37 9 -15 18 -121 23 -121 6 0 -7 -7 -7 -21 0 -27 15 -59 47
-59 60 0 6 -4 10 -10 10 -5 0 -10 4 -10 9 0 7 203 13 802 23 62 1 91 -2 104
-13 13 -11 12 -4 -7 31 -12 25 -22 48 -21 52 1 4 -3 20 -9 35 -7 15 -11 38
-11 50 1 12 -3 25 -8 28 -6 3 -10 16 -9 28 1 20 2 20 9 -3 11 -34 13 58 3 126
l-8 49 -6 -40 c-5 -35 -6 -33 -8 25 -3 59 -4 62 -12 33 -10 -33 -33 -44 -42
-20 -4 9 -7 9 -18 0 -8 -8 -43 -13 -95 -13 -71 0 -83 -3 -86 -17 -3 -16 -7
-14 -31 10 -18 17 -39 27 -57 27 -22 0 -28 4 -24 15 4 11 22 15 63 16 l56 1
-55 9 c-33 4 -56 4 -58 -2 -2 -5 -15 -9 -28 -9 -19 0 -24 5 -24 25 0 16 -6 25
-15 25 -8 0 -15 -4 -15 -10 0 -5 -4 -10 -10 -10 -5 0 -10 9 -10 20 0 10 -10
25 -22 31 -30 16 -39 30 -32 52 4 12 -4 22 -25 35 -20 11 -31 25 -31 40 0 15
-6 22 -19 22 -10 0 -24 7 -31 15 -7 8 -27 17 -46 21 -19 3 -34 10 -34 15 0 5
-12 9 -27 9 -20 0 -24 3 -15 9 10 6 2 11 -25 16 -21 4 -44 11 -50 17 -12 9
-184 22 -411 30 -45 2 -78 4 -72 6 5 2 10 10 10 18 0 15 -7 26 -51 73 -23 26
-26 36 -25 99 l1 70 230 6 c127 4 253 10 280 13 l50 7 -40 8 c-22 5 -60 13
-85 18 -45 9 -44 9 13 5 58 -4 69 3 42 25 -8 7 -15 23 -15 36 0 22 -4 24 -52
26 l-53 2 53 3 c61 5 71 23 12 23 -29 0 -40 4 -40 15 0 11 13 15 53 16 58 1
165 16 130 18 -13 0 -23 7 -23 14 0 14 -40 37 -65 37 -7 0 -16 -6 -19 -12 -3
-7 -3 -1 0 14 4 17 2 28 -5 28 -6 0 -11 17 -11 40 0 22 5 40 10 40 6 0 10 -18
10 -40 0 -29 4 -40 15 -40 11 0 15 11 15 42 0 42 -21 78 -46 78 -7 0 -18 9
-24 20 -6 11 -17 20 -25 20 -24 0 -17 18 18 50 l32 29 -27 1 c-26 0 -28 3 -28
40 0 37 2 40 28 40 l27 1 -33 29 c-35 32 -41 50 -17 50 11 0 15 11 15 40 0 28
4 40 14 40 10 0 16 14 18 42 2 35 6 42 21 40 14 -2 17 5 17 39 0 31 -3 40 -14
36 -8 -3 -24 6 -37 20 -13 14 -37 32 -54 41 -24 13 -26 17 -12 20 23 5 23 50
-1 69 -9 7 -12 13 -7 12 21 -3 49 3 38 8 -15 6 -18 73 -3 73 6 0 10 18 10 40
0 38 -13 54 -23 28 -4 -10 -7 -10 -18 -1 -11 11 -10 13 4 13 9 0 17 6 17 14 0
8 6 17 13 20 10 5 10 7 0 12 -7 3 -13 17 -13 30 0 27 -55 83 -82 84 -21 0 -78
32 -78 44 0 5 -8 15 -18 23 -15 13 -15 14 10 8 20 -4 28 -1 28 9 0 22 34 76
48 76 8 0 12 17 12 51 0 44 4 54 30 75 16 14 29 28 28 32 -2 13 15 47 34 68
11 12 27 37 37 55 10 19 27 35 38 37 12 2 28 19 39 42 11 22 22 40 27 40 4 0
7 11 7 24 0 25 41 76 62 76 7 0 2 9 -12 20 l-25 19 25 10 c14 5 19 10 13 10
-22 1 -14 30 12 47 14 9 25 23 25 32 0 22 40 102 51 102 5 0 9 10 9 23 0 29
25 100 37 104 4 2 7 23 5 48 -4 40 -7 45 -23 40 -34 -11 -21 28 21 60 38 29
39 32 40 90 1 59 15 95 39 95 6 0 11 17 11 40 0 22 3 40 8 40 4 0 6 33 4 74
-3 70 -2 74 24 95 25 20 26 22 10 34 -16 12 -14 15 23 27 35 11 41 17 41 42 0
15 -5 28 -11 28 -5 0 -7 4 -4 10 3 6 14 10 24 10 15 0 19 11 25 65 4 35 4 76
0 89 -6 24 -5 24 20 13 14 -7 26 -18 26 -24 0 -8 14 -13 36 -13 19 0 42 -7 50
-15 23 -23 34 -18 34 14 0 16 6 32 13 34 7 3 5 6 -5 6 -22 1 -24 31 -3 31 8 0
15 5 15 10 0 6 -4 10 -10 10 -5 0 -10 5 -10 10 0 6 13 10 28 10 15 0 33 5 39
11 6 6 24 12 40 14 42 4 93 17 93 24 0 3 18 17 40 31 31 19 40 31 40 52 0 24
4 28 30 28 28 0 30 2 30 40 0 22 5 40 10 40 6 0 10 11 10 24 0 13 7 29 15 36
9 8 15 30 15 56 0 32 4 44 15 44 11 0 15 11 15 40 0 22 5 40 10 40 6 0 10 11
10 24 0 13 7 26 15 30 11 4 15 20 15 56 0 36 4 50 14 50 8 0 17 6 19 13 4 9 8
9 15 -2 6 -8 17 -11 25 -8 16 6 26 42 34 125 3 28 9 52 14 52 5 0 9 14 9 30 0
17 4 30 8 30 14 0 52 89 52 120 0 33 59 100 87 100 9 0 12 6 8 19 -4 14 3 24
30 39 19 12 35 28 35 35 0 8 16 31 36 52 28 31 38 35 45 24 7 -10 11 -11 17
-2 4 6 23 13 42 16 22 2 12 4 -28 5 -76 2 -76 22 0 22 77 0 52 10 -38 15 -121
8 -173 16 -149 25 16 6 19 14 16 50 l-3 43 43 -7 43 -7 -32 31 c-17 16 -36 30
-42 30 -19 0 -10 28 10 33 18 5 20 14 20 81 0 44 4 76 10 76 6 0 10 22 10 49
0 28 4 53 10 56 6 3 10 24 10 46 0 21 3 39 8 39 4 0 22 14 40 31 l34 30 -18
37 c-14 31 -15 48 -8 119 l9 83 -32 6 c-31 6 -33 9 -33 49 0 36 4 44 22 49
l23 6 -21 18 c-20 17 -24 24 -24 42 0 6 -9 10 -20 10 -12 0 -25 10 -32 25 -9
20 -19 25 -46 25 l-34 0 7 78 c4 42 11 79 16 80 5 2 9 21 9 43 0 21 5 39 10
39 6 0 10 6 10 13 0 8 11 19 25 25 14 7 28 19 31 27 8 21 24 19 25 -2 0 -11 3
-13 6 -5 2 6 9 10 14 6 17 -10 9 9 -8 22 -10 7 -14 16 -10 20 4 5 12 3 16 -4
8 -13 24 1 49 45 16 29 16 30 -8 36 -27 7 -25 25 3 36 23 9 23 12 16 68 -5 36
-4 62 2 68 6 6 12 2 15 -13 4 -12 13 -22 21 -22 10 0 13 6 8 18 -4 9 -9 31
-12 49 -4 26 -1 34 21 48 14 10 26 24 26 32 0 8 10 23 23 34 l22 19 -24 20
c-20 18 -21 20 -5 20 11 -1 30 -10 43 -20 l23 -20 -23 -20 -24 -19 23 -1 c19
0 22 -5 22 -40 0 -22 5 -40 10 -40 6 0 10 18 10 40 0 22 -4 40 -10 40 -16 0
-12 19 12 50 32 44 51 40 43 -10 -4 -26 -3 -40 4 -40 6 0 11 18 11 40 l0 40
40 0 c29 0 40 -4 40 -15 0 -11 11 -15 40 -15 38 0 40 2 40 30 0 31 16 41 26
15 4 -8 17 -15 30 -15 21 0 24 -4 24 -40 0 -45 11 -52 28 -16 8 19 22 26 57
31 25 4 54 5 66 2 12 -3 22 0 26 9 9 24 21 16 42 -28 11 -24 20 -35 20 -25 1
21 19 23 27 2 4 -8 17 -15 30 -15 13 0 24 -4 24 -10 0 -5 7 -10 15 -10 8 0 15
5 15 10 0 6 11 10 25 10 14 0 25 -4 25 -10 0 -5 -7 -10 -15 -10 -8 0 -15 -9
-15 -20 0 -11 7 -20 15 -20 9 0 15 -9 15 -24 0 -13 4 -26 10 -28 5 -1 11 -15
12 -29 1 -17 7 -25 15 -22 9 4 10 10 3 23 -7 13 -7 21 0 25 5 3 10 0 10 -7 1
-30 31 60 32 94 0 21 4 36 8 33 10 -6 30 64 23 83 -5 11 -3 13 7 7 10 -6 12
-3 8 13 -4 12 -2 22 3 22 5 0 9 11 9 25 0 14 3 25 8 25 11 0 44 99 37 110 -3
6 -2 10 3 10 14 0 35 57 26 71 -4 7 -3 10 3 6 5 -3 24 31 43 76 43 106 144
309 227 456 266 469 657 911 1083 1222 519 380 1084 601 1722 674 182 21 638
13 818 -14z m-1283 -2087 c-3 -3 -12 -4 -19 -1 -8 3 -5 6 6 6 11 1 17 -2 13
-5z m-322 -154 c-3 -5 0 -10 7 -10 9 0 9 -3 -2 -10 -8 -5 -19 -10 -25 -10 -5
0 -3 5 5 10 13 9 13 10 0 10 -13 0 -13 1 0 10 19 12 23 12 15 0z m-387 -254
c-2 -1 -12 -8 -23 -16 -18 -14 -19 -13 -8 1 7 9 10 19 6 23 -4 4 1 4 10 0 10
-3 17 -7 15 -8z m-2522 -164 c-4 -3 -11 -1 -17 5 -8 8 -8 15 2 26 12 13 14 13
17 -5 2 -11 1 -22 -2 -26z m184 -12 l0 -40 -50 0 c-47 0 -50 2 -50 25 0 23 4
25 40 25 29 0 40 4 40 15 0 8 5 15 10 15 6 0 10 -18 10 -40z m327 -2 c-3 -8
-6 -5 -6 6 -1 11 2 17 5 13 3 -3 4 -12 1 -19z m-187 -54 c0 -9 -5 -14 -12 -12
-18 6 -21 28 -4 28 9 0 16 -7 16 -16z m120 -153 c0 -6 -4 -13 -10 -16 -5 -3
-10 1 -10 9 0 9 5 16 10 16 6 0 10 -4 10 -9z m-960 -62 c0 -5 -4 -9 -10 -9 -5
0 -10 7 -10 16 0 8 5 12 10 9 6 -3 10 -10 10 -16z m-4 -870 c-3 -34 -6 -70 -6
-80 0 -11 -4 -19 -10 -19 -6 0 -10 33 -10 80 0 68 3 80 16 80 15 0 16 -9 10
-61z m895 -1128 c6 9 7 2 3 -21 -11 -60 -24 -57 -23 6 1 32 4 46 6 30 4 -22 7
-26 14 -15z m1952 -9 c-3 -12 -9 -19 -14 -16 -5 3 -4 14 2 25 13 26 20 21 12
-9z m-12 -75 c-10 -9 -11 -8 -5 6 3 10 9 15 12 12 3 -3 0 -11 -7 -18z m-21
-27 c0 -5 -5 -10 -11 -10 -5 0 -7 5 -4 10 3 6 8 10 11 10 2 0 4 -4 4 -10z
m-80 -110 c0 -5 -2 -10 -4 -10 -3 0 -8 5 -11 10 -3 6 -1 10 4 10 6 0 11 -4 11
-10z m-1764 -176 c-19 -18 -21 -11 -4 19 7 14 13 17 15 10 3 -7 -3 -20 -11
-29z m64 -224 c0 -5 -2 -10 -4 -10 -3 0 -8 5 -11 10 -3 6 -1 10 4 10 6 0 11
-4 11 -10z m57 -112 c-3 -7 -5 -2 -5 12 0 14 2 19 5 13 2 -7 2 -19 0 -25z
m1935 -80 c-7 -7 -12 -8 -12 -2 0 14 12 26 19 19 2 -3 -1 -11 -7 -17z m-1892
-38 c0 -5 -2 -10 -4 -10 -3 0 -8 5 -11 10 -3 6 -1 10 4 10 6 0 11 -4 11 -10z
m1887 -22 c-3 -7 -5 -2 -5 12 0 14 2 19 5 13 2 -7 2 -19 0 -25z m-1997 -58 c0
-5 -4 -10 -10 -10 -5 0 -10 5 -10 10 0 6 5 10 10 10 6 0 10 -4 10 -10z m1997
-72 c-3 -8 -6 -5 -6 6 -1 11 2 17 5 13 3 -3 4 -12 1 -19z m-10 -790 c-3 -8 -6
-5 -6 6 -1 11 2 17 5 13 3 -3 4 -12 1 -19z m20 -30 c-3 -8 -6 -5 -6 6 -1 11 2
17 5 13 3 -3 4 -12 1 -19z m16 -48 c3 -11 1 -18 -4 -14 -5 3 -9 12 -9 20 0 20
7 17 13 -6z m150 -425 c-3 -9 -8 -14 -10 -11 -3 3 -2 9 2 15 9 16 15 13 8 -4z
m-1132 -12 c13 -16 12 -17 -3 -4 -17 13 -22 21 -14 21 2 0 10 -8 17 -17z
m1197 -79 c8 -15 8 -21 -1 -21 -7 0 -13 11 -13 24 -2 27 -1 27 14 -3z m12 -89
c0 -5 -5 -3 -10 5 -5 8 -10 20 -10 25 0 6 5 3 10 -5 5 -8 10 -19 10 -25z m167
-207 c-3 -8 -6 -5 -6 6 -1 11 2 17 5 13 3 -3 4 -12 1 -19z m3135 -1918 l3
-410 195 91 c107 50 328 153 490 229 442 206 646 300 653 300 4 0 7 -67 7
-148 l0 -149 -187 -90 c-104 -50 -263 -126 -356 -169 l-167 -78 352 -347 353
-348 -197 0 -197 -1 -238 233 c-321 314 -339 330 -361 325 -10 -3 -93 -38
-185 -79 l-166 -74 -1 -202 0 -203 -140 0 -140 0 0 765 0 765 140 0 140 0 2
-410z m-6019 263 c-7 -2 -19 -2 -25 0 -7 3 -2 5 12 5 14 0 19 -2 13 -5z m4
-19 c-3 -3 -12 -4 -19 -1 -8 3 -5 6 6 6 11 1 17 -2 13 -5z m90 0 c-3 -3 -12
-4 -19 -1 -8 3 -5 6 6 6 11 1 17 -2 13 -5z m-150 -10 c-3 -3 -12 -4 -19 -1 -8
3 -5 6 6 6 11 1 17 -2 13 -5z m110 0 c-3 -3 -12 -4 -19 -1 -8 3 -5 6 6 6 11 1
17 -2 13 -5z m3414 -23 c71 -7 111 -16 155 -37 112 -53 229 -205 266 -344 15
-56 17 -124 17 -507 l1 -443 -140 0 -140 0 0 450 c0 499 1 493 -64 547 -62 51
-82 53 -495 53 -363 0 -384 -1 -421 -20 -23 -12 -52 -39 -68 -63 l-27 -42 -3
-462 -3 -463 -140 0 -140 0 4 478 c3 514 1 493 58 604 41 81 159 186 249 223
25 10 72 21 105 25 86 10 672 11 786 1z m1890 -38 c80 -39 157 -115 210 -203
74 -125 72 -112 76 -627 l4 -463 -140 0 c-136 0 -141 1 -141 21 0 13 -5 19
-12 15 -86 -35 -109 -37 -559 -34 l-444 3 -59 29 c-64 31 -155 116 -205 193
-17 26 -43 82 -56 126 -24 74 -25 91 -25 310 0 253 7 301 58 405 32 65 128
167 196 207 92 54 95 54 581 52 l450 -2 66 -32z m3452 -1 c111 -55 213 -176
261 -311 18 -49 21 -86 24 -289 4 -273 -6 -340 -66 -441 -49 -83 -149 -176
-231 -215 l-66 -31 -460 0 -460 0 -67 33 c-122 60 -235 204 -272 349 -19 73
-23 460 -5 545 34 162 169 321 317 374 l67 24 445 -3 445 -2 68 -33z m-10036
-854 c-3 -8 -6 -5 -6 6 -1 11 2 17 5 13 3 -3 4 -12 1 -19z m40 -124 c-3 -3
-12 -4 -19 -1 -8 3 -5 6 6 6 11 1 17 -2 13 -5z m83 -274 c0 -5 -7 -10 -15 -10
-8 0 -15 5 -15 10 0 6 7 10 15 10 8 0 15 -4 15 -10z"/>
<path d="M2400 9345 c0 -8 7 -15 15 -15 9 0 12 6 9 15 -4 8 -10 15 -15 15 -5
0 -9 -7 -9 -15z"/>
<path d="M2960 9340 c0 -5 7 -10 15 -10 8 0 15 5 15 10 0 6 -7 10 -15 10 -8 0
-15 -4 -15 -10z"/>
<path d="M2233 9318 c2 -7 10 -13 17 -13 7 0 15 6 18 13 2 7 -5 12 -18 12 -13
0 -20 -5 -17 -12z"/>
<path d="M3043 9235 c0 -27 2 -38 4 -22 2 15 2 37 0 50 -2 12 -4 0 -4 -28z"/>
<path d="M3067 9213 c-2 -4 -7 -21 -10 -38 -6 -30 -6 -30 9 4 8 18 13 35 11
38 -3 2 -7 1 -10 -4z"/>
<path d="M2000 8914 c0 -9 5 -14 12 -12 18 6 21 28 4 28 -9 0 -16 -7 -16 -16z"/>
<path d="M2996 8853 c-6 -14 -5 -15 5 -6 7 7 10 15 7 18 -3 3 -9 -2 -12 -12z"/>
<path d="M7722 8679 c-67 -5 -157 -13 -200 -19 -42 -6 -100 -13 -129 -15 -28
-3 -62 -9 -75 -14 -17 -7 -10 -8 26 -4 36 5 47 3 42 -5 -4 -7 -3 -12 3 -12 7
0 7 -8 -1 -25 -6 -13 -15 -22 -19 -19 -5 3 -9 -4 -9 -15 0 -12 7 -21 15 -21 9
0 15 -9 15 -24 0 -28 -16 -43 -23 -24 -4 8 -6 7 -6 -4 -1 -9 2 -24 5 -33 5
-13 8 -14 15 -3 6 9 9 9 9 1 0 -6 -7 -18 -15 -27 -18 -18 -20 -43 -2 -49 7 -2
8 -8 3 -13 -5 -5 -11 -4 -13 4 -3 6 -13 12 -24 12 -28 0 -27 -70 1 -90 20 -14
28 -50 12 -50 -5 0 -16 -19 -25 -41 -14 -36 -19 -40 -32 -29 -13 11 -15 7 -15
-33 0 -25 -4 -49 -10 -52 -5 -3 -10 -21 -10 -40 0 -19 -5 -37 -12 -41 -8 -5
-9 -2 -5 9 8 21 3 21 -17 1 -23 -22 -20 -34 9 -34 30 0 30 1 3 -51 -16 -31
-18 -43 -9 -48 17 -11 9 -82 -12 -115 -10 -14 -26 -26 -37 -26 -12 0 -20 -7
-20 -16 0 -9 -9 -18 -20 -21 -11 -3 -20 -14 -20 -25 0 -10 4 -17 9 -13 5 3 12
1 16 -4 3 -6 -27 -12 -77 -14 -75 -4 -74 -4 14 -3 90 2 117 -6 58 -17 -14 -2
11 -3 55 -2 65 1 173 -10 127 -14 -20 -2 -3 -21 18 -21 13 0 17 -5 14 -15 -5
-11 1 -15 24 -15 17 0 39 -3 49 -6 15 -5 16 -4 3 6 -13 10 -12 11 3 6 10 -3
28 -6 40 -6 15 0 18 -3 10 -8 -7 -5 67 -22 170 -41 100 -18 225 -41 279 -51
l96 -19 69 33 c166 81 336 116 401 82 35 -18 132 -171 132 -208 0 -11 -12 -47
-26 -79 l-27 -59 41 -52 c115 -151 201 -310 226 -418 8 -36 22 -173 32 -305
l17 -240 -69 -64 c-80 -74 -172 -137 -222 -151 -46 -12 -149 21 -282 92 -104
55 -252 148 -287 180 -20 18 -55 24 -295 45 -230 21 -288 23 -368 14 -100 -11
-216 -45 -238 -71 -8 -8 -11 -10 -8 -3 7 13 -70 -22 -79 -37 -10 -16 11 -12
25 5 7 8 17 12 23 8 6 -4 3 -11 -8 -20 -15 -10 -15 -13 -4 -13 8 0 20 5 27 12
8 8 12 9 12 1 0 -6 -6 -14 -12 -17 -10 -5 -10 -7 0 -12 6 -3 12 -11 12 -17 0
-8 -4 -7 -12 1 -15 15 -45 15 -54 0 -5 -8 -2 -9 10 -5 26 10 37 -1 24 -22 -10
-17 -13 -17 -27 -4 -10 11 -16 12 -19 4 -2 -6 -12 -11 -23 -11 -12 0 -23 -10
-29 -25 -5 -14 -13 -25 -17 -25 -5 0 -19 -10 -33 -21 -23 -18 -23 -19 -2 -9
15 7 22 7 22 0 0 -5 -6 -10 -13 -10 -7 0 -22 -7 -33 -16 -10 -8 -13 -12 -5 -8
10 5 12 3 6 -5 -4 -8 -20 -11 -36 -9 -20 3 -29 0 -29 -9 0 -8 -5 -11 -11 -7
-8 4 -8 9 0 17 13 13 14 27 4 27 -12 -1 -42 -73 -44 -105 -9 -157 -1 -492 14
-575 45 -262 253 -503 531 -614 127 -51 190 -59 425 -53 247 6 369 26 585 98
808 269 1362 1040 1426 1983 8 119 7 159 -10 270 -85 585 -479 1176 -1026
1538 -185 123 -193 126 -397 138 -201 11 -443 11 -625 -1z m-261 -50 c-30 -5
-58 -6 -63 -1 -5 5 20 9 54 9 l63 1 -54 -9z m-228 -1006 c-7 -2 -19 -2 -25 0
-7 3 -2 5 12 5 14 0 19 -2 13 -5z m-31 -1380 c-6 -2 -10 -9 -7 -14 4 -5 -1 -6
-10 -2 -13 5 -14 7 -3 14 7 5 18 8 23 8 6 0 4 -3 -3 -6z m-30 -31 c-7 -2 -12
-21 -12 -43 0 -28 -4 -39 -15 -39 -11 0 -15 11 -15 40 0 30 4 40 16 40 8 0 12
4 9 10 -4 6 1 7 11 3 11 -4 13 -8 6 -11z m-325 -824 c-3 -8 -6 -5 -6 6 -1 11
2 17 5 13 3 -3 4 -12 1 -19z"/>
<path d="M7058 8583 c7 -3 16 -2 19 1 4 3 -2 6 -13 5 -11 0 -14 -3 -6 -6z"/>
<path d="M2961 7794 c0 -11 3 -14 6 -6 3 7 2 16 -1 19 -3 4 -6 -2 -5 -13z"/>
<path d="M5342 7746 c-15 -17 -18 -24 -7 -16 11 8 23 20 27 26 4 6 21 10 38 9
16 -1 27 1 24 4 -16 16 -56 4 -82 -23z"/>
<path d="M5380 7736 c7 -7 13 -7 20 0 6 6 3 10 -10 10 -13 0 -16 -4 -10 -10z"/>
<path d="M5231 7636 c-28 -30 -51 -61 -51 -68 0 -9 3 -10 8 -2 4 6 15 10 26 8
14 -2 16 0 7 9 -15 15 -14 27 2 23 6 -1 9 -1 5 1 -15 9 21 33 39 27 15 -5 15
-4 3 5 -8 6 -12 11 -7 12 4 1 12 3 17 4 6 1 15 3 20 4 6 0 10 6 10 12 0 8 -6
7 -17 -2 -15 -12 -16 -12 -10 4 3 9 5 17 3 17 -2 0 -26 -24 -55 -54z"/>
<path d="M2960 7620 c0 -5 -20 -10 -45 -10 -34 0 -43 -3 -39 -14 3 -8 -2 -16
-13 -19 -10 -3 1 -5 25 -6 27 -1 42 3 42 12 0 8 4 7 10 -3 9 -13 11 -13 20 0
7 11 10 0 10 -37 0 -43 -3 -53 -17 -53 -13 0 -14 -3 -5 -12 17 -17 15 -38 -5
-61 -17 -18 -17 -19 0 -32 9 -6 17 -20 17 -30 0 -26 6 -15 13 23 4 18 3 31 -1
28 -5 -3 -3 37 4 87 6 53 8 102 3 115 -9 23 -19 30 -19 12z"/>
<path d="M2763 7603 c9 -2 23 -2 30 0 6 3 -1 5 -18 5 -16 0 -22 -2 -12 -5z"/>
<path d="M7190 7590 c8 -5 26 -10 39 -10 32 0 24 6 -19 14 -25 4 -31 3 -20 -4z"/>
<path d="M5240 7586 c0 -2 7 -7 16 -10 8 -3 12 -2 9 4 -6 10 -25 14 -25 6z"/>
<path d="M2753 7573 c9 -2 25 -2 35 0 9 3 1 5 -18 5 -19 0 -27 -2 -17 -5z"/>
<path d="M5160 7553 c0 -5 9 -18 20 -28 11 -10 20 -15 20 -11 0 4 -9 16 -20
28 -11 12 -20 17 -20 11z" fill="#0000FF"/>
<path d="M5123 7511 c-15 -20 -18 -32 -11 -42 8 -12 9 -12 5 1 -2 8 3 23 11
33 14 16 16 16 34 1 23 -22 23 -13 0 14 l-19 21 -20 -28z"/>
<path d="M2880 7479 c0 -5 5 -7 10 -4 6 3 10 8 10 11 0 2 -4 4 -10 4 -5 0 -10
-5 -10 -11z"/>
<path d="M5073 7432 c1 -14 5 -18 11 -12 7 7 6 14 -1 21 -9 9 -12 7 -10 -9z"/>
<path d="M5101 7424 c0 -11 3 -14 6 -6 3 7 2 16 -1 19 -3 4 -6 -2 -5 -13z"/>
<path d="M2880 7420 c0 -5 5 -10 11 -10 5 0 7 5 4 10 -3 6 -8 10 -11 10 -2 0
-4 -4 -4 -10z"/>
<path d="M5039 7413 c-13 -16 -12 -17 4 -4 16 13 21 21 13 21 -2 0 -10 -8 -17
-17z"/>
<path d="M5016 7382 c-10 -10 -6 -42 5 -42 6 0 8 9 4 23 -7 21 -6 21 7 3 11
-14 17 -16 22 -7 5 7 5 15 2 19 -9 8 -33 11 -40 4z"/>
<path d="M2960 6971 c0 -12 5 -21 10 -21 6 0 10 6 10 14 0 8 -4 18 -10 21 -5
3 -10 -3 -10 -14z"/>
<path d="M5390 6971 c0 -6 4 -13 10 -16 6 -3 7 1 4 9 -7 18 -14 21 -14 7z"/>
<path d="M5150 6890 c0 -22 5 -40 10 -40 6 0 10 18 10 40 0 22 -4 40 -10 40
-5 0 -10 -18 -10 -40z"/>
<path d="M5360 6911 c0 -6 4 -13 10 -16 6 -3 7 1 4 9 -7 18 -14 21 -14 7z"/>
<path d="M8470 6845 c22 -59 93 -125 133 -125 16 0 16 3 2 37 -25 60 -86 113
-129 113 -12 0 -14 -5 -6 -25z"/>
<path d="M5327 6833 c3 -7 6 -13 8 -13 2 0 5 6 8 13 3 8 -1 14 -8 14 -7 0 -11
-6 -8 -14z"/>
<path d="M2960 6663 c1 -27 1 -27 15 -9 19 25 19 36 0 36 -10 0 -15 -10 -15
-27z"/>
<path d="M5257 6683 c-4 -3 -7 -13 -7 -22 1 -13 3 -13 11 2 11 19 8 33 -4 20z"/>
<path d="M5235 6630 c3 -5 8 -10 11 -10 2 0 4 5 4 10 0 6 -5 10 -11 10 -5 0
-7 -4 -4 -10z"/>
<path d="M2986 6515 c4 -8 10 -15 14 -15 4 0 10 7 14 15 4 10 -1 15 -14 15
-13 0 -18 -5 -14 -15z"/>
<path d="M7000 6169 c-21 -16 -22 -18 -5 -13 19 5 19 5 3 -9 -16 -12 -14 -14
15 -14 18 0 26 2 19 5 -9 3 -10 8 -3 16 20 24 -3 36 -29 15z"/>
<path d="M6951 6136 c-9 -11 -9 -16 1 -22 7 -4 10 -4 6 1 -4 4 -3 14 3 22 6 7
9 13 6 13 -2 0 -10 -6 -16 -14z"/>
<path d="M6906 6101 c-6 -10 27 -51 41 -51 13 0 13 32 0 48 -11 14 -33 16 -41
3z m34 -16 c7 -8 8 -15 2 -15 -5 0 -15 7 -22 15 -7 8 -8 15 -2 15 5 0 15 -7
22 -15z"/>
<path d="M6871 6066 c-15 -17 -1 -28 19 -15 11 6 12 9 2 9 -7 0 -10 5 -7 10 9
15 -1 12 -14 -4z"/>
<path d="M6851 6030 c0 -8 6 -24 14 -34 19 -25 19 -9 0 24 -8 14 -14 19 -14
10z"/>
<path d="M6820 6016 c-6 -9 -10 -21 -7 -28 4 -9 6 -7 6 4 1 9 7 18 14 21 6 2
9 7 6 11 -3 4 -12 0 -19 -8z"/>
<path d="M3178 5903 c7 -3 16 -2 19 1 4 3 -2 6 -13 5 -11 0 -14 -3 -6 -6z"/>
<path d="M967 5883 c-4 -3 -7 -29 -7 -57 1 -47 2 -49 15 -32 25 34 17 115 -8
89z"/>
<path d="M3300 5290 c0 -22 5 -40 10 -40 6 0 10 18 10 40 0 22 -4 40 -10 40
-5 0 -10 -18 -10 -40z"/>
<path d="M553 3450 c0 -25 2 -35 4 -22 2 12 2 32 0 45 -2 12 -4 2 -4 -23z"/>
<path d="M2625 3260 c-3 -5 -1 -10 4 -10 6 0 11 5 11 10 0 6 -2 10 -4 10 -3 0
-8 -4 -11 -10z"/>
<path d="M648 2913 c7 -3 16 -2 19 1 4 3 -2 6 -13 5 -11 0 -14 -3 -6 -6z"/>
<path d="M2328 2883 c7 -3 16 -2 19 1 4 3 -2 6 -13 5 -11 0 -14 -3 -6 -6z"/>
<path d="M3605 2576 c-43 -19 -69 -45 -94 -93 -20 -40 -21 -56 -21 -289 0
-285 2 -292 94 -344 l51 -30 392 0 c253 0 402 4 420 11 40 15 71 47 99 101 23
46 24 55 24 265 0 126 -5 235 -11 258 -14 52 -42 82 -104 111 -50 24 -51 24
-435 24 -299 -1 -392 -4 -415 -14z"/>
<path d="M2709 2561 c11 -7 10 -10 -5 -14 -11 -3 -7 -5 9 -4 22 2 35 -6 55
-32 26 -33 26 -34 4 -27 -13 5 -22 3 -22 -3 0 -6 5 -11 10 -11 6 0 10 -5 10
-11 0 -6 -7 -5 -19 3 -21 15 -195 13 -186 -3 4 -5 -8 -9 -24 -9 -17 0 -31 -4
-31 -8 0 -23 -39 -50 -80 -56 -63 -8 -174 -16 -242 -15 -31 0 -59 -5 -63 -10
-3 -6 -26 -19 -50 -30 -25 -11 -45 -25 -45 -30 0 -7 -23 -11 -55 -11 -30 0
-55 -4 -55 -9 0 -8 -52 -31 -71 -31 -4 0 -10 10 -12 23 -2 12 -5 3 -6 -20 -1
-54 -21 -57 -21 -3 0 22 -4 40 -10 40 -5 0 -10 -18 -10 -40 0 -53 -18 -51 -23
3 -2 23 -4 -23 -5 -103 -2 -141 10 -226 28 -215 6 3 7 -1 4 -9 -7 -19 47 -73
92 -92 26 -11 111 -14 406 -14 215 0 388 4 407 10 39 11 94 60 119 105 35 63
26 599 -9 544 -7 -11 -9 -10 -9 4 0 26 -67 87 -95 87 -5 0 -4 -4 4 -9z m98
-163 c-3 -8 -6 -5 -6 6 -1 11 2 17 5 13 3 -3 4 -12 1 -19z"/>
<path d="M1790 2471 c0 -6 4 -13 10 -16 6 -3 7 1 4 9 -7 18 -14 21 -14 7z"/>
<path d="M1462 2230 c0 -14 2 -19 5 -12 2 6 2 18 0 25 -3 6 -5 1 -5 -13z"/>
<path d="M3086 1774 c-4 -9 -4 -19 -1 -22 2 -3 7 3 11 12 4 9 4 19 1 22 -2 3
-7 -3 -11 -12z"/>
<path d="M1530 1751 c0 -6 4 -13 10 -16 6 -3 7 1 4 9 -7 18 -14 21 -14 7z"/>
<path d="M1652 1624 c10 -10 20 -16 22 -13 3 3 -5 11 -17 18 -21 13 -21 12 -5
-5z" fill="#0000FF"/>
<path d="M1702 1594 c10 -10 20 -16 22 -13 3 3 -5 11 -17 18 -21 13 -21 12 -5
-5z"/>
<path d="M7064 2571 c-41 -19 -69 -51 -92 -104 -8 -19 -12 -105 -12 -275 0
-269 1 -274 60 -320 68 -53 60 -52 488 -52 l398 0 42 27 c28 18 51 45 67 77
24 49 25 55 25 283 0 250 -4 278 -51 323 -13 12 -42 31 -64 41 -37 17 -71 19
-430 19 -359 0 -393 -2 -431 -19z" fill="#00FF00"/>
<path d="M10498 2561 c-30 -19 -52 -44 -67 -73 -20 -42 -21 -59 -21 -289 0
-285 2 -293 90 -346 l54 -33 401 0 c453 0 440 -2 499 79 l31 43 0 267 0 268
-27 35 c-15 20 -47 45 -71 57 -42 20 -57 21 -443 21 l-400 0 -46 -29z" fill="#FF0000"/>
</g>
</svg>
